<?xml version="1.0" encoding="UTF-8" standalone="no"?>
<!-- Created with Inkscape (http://www.inkscape.org/) -->

<svg
   width="45.490494mm"
   height="36.880669mm"
   viewBox="0 0 45.490494 36.880669"
   version="1.1"
   id="svg5"
   xml:space="preserve"
   xmlns="http://www.w3.org/2000/svg"
   xmlns:svg="http://www.w3.org/2000/svg"><defs
     id="defs2" /><path
     style="fill:#aa0000;stroke:none;stroke-width:0.4;stroke-linecap:round;stroke-linejoin:round;stroke-dasharray:none;stop-color:#000000"
     d="m 76.630024,-12.070337 c -1.416264,0.344151 -6.401861,0.06896 -7.142538,1.550318 -0.04914,0.09827 2.608268,0.221475 2.934531,0.221475 1.272629,0 3.986924,-0.701075 5.038534,0 0.527084,0.3513875 -0.819317,0.6597145 -0.221472,0.8305275 2.989283,0.85408 9.013428,-1.0301375 11.184437,0.05537 1.574723,0.78736 4.822807,1.299723 7.806963,0.553683 0.410379,-0.102595 2.048721,-0.110913 2.270109,-0.553683 0.19812,-0.396243 -0.134239,-0.508376 0.221472,-0.7751605 0.840081,-0.630061 4.32376,-0.266319 5.42611,-0.166106 1.51293,0.137539 9.19403,-0.827677 8.02844,-1.993267 -0.47055,-0.470549 -3.26127,-0.442947 -3.93116,-0.442947 -2.72565,0 -6.32251,-0.606431 -8.969705,0.05537 -1.580499,0.395124 -3.819781,0.761357 -5.370745,0.664422 -3.719002,-0.232439 -7.897751,-1.52944 -11.627387,-0.996633 -1.315471,0.187923 -4.444807,1.683936 -5.647589,0.996633 z"
     id="path1076" /><path
     style="fill:#ffffff;stroke:none;stroke-width:0.4;stroke-linecap:round;stroke-linejoin:round;stroke-dasharray:none;stop-color:#000000"
     d="m 91.243132,-25.601525 c 8.915198,-0.747873 5.807282,1.421217 6.655745,7.360473 0.131398,0.919781 1.005517,4.553989 0.234911,5.324596 -1.403197,1.403197 -10.207981,2.588528 -11.549679,0.352364 -0.771158,-1.285263 1.292103,-5.435753 1.800967,-6.538293 0.793974,-1.720278 1.119814,-5.505859 2.858056,-6.49914 z"
     id="path1215" /><path
     style="fill:#aa0000;stroke-width:0.0669418"
     d="m 131.7768,-12.849501 c -0.71406,1.721029 -1.5253,4.0993179 -2.01539,5.9083779 -0.24856,0.917504 -0.60715,2.424755 -0.67488,2.836731 l -0.0414,0.252008 0.75678,-0.0166 c 0.41623,-0.0091 1.15728,-0.02742 1.64677,-0.04065 0.48949,-0.01323 1.15633,-0.0298 1.48185,-0.03681 0.32552,-0.007 1.92538,-0.04555 3.55523,-0.08563 1.62986,-0.04008 4.61349,-0.113209 6.6303,-0.162504 2.01681,-0.04929 4.79457,-0.11784 6.17281,-0.152325 l 2.50589,-0.0627 2.27397,0.09049 c 0.0455,-0.0013 0.1618,0.03668 0.35234,0.120759 0.61362,0.270711 3.36494,1.100373 4.86055,1.465621 0.86497,0.211234 2.11097,0.44293 2.13169,0.396387 0.0204,-0.04577 0.0969,-2.025321 0.0801,-2.072231 -0.005,-0.01503 -0.24053,-0.01665 -0.52253,-0.0035 -0.54438,0.02534 -1.86655,-0.01976 -2.80427,-0.09566 -1.15287,-0.09331 -3.86656,-0.44959 -3.84215,-0.504427 0.006,-0.01226 0.34779,-0.04362 0.76074,-0.0697 0.9887,-0.06244 2.25554,-0.358916 3.20101,-0.749108 0.67229,-0.277459 1.39095,-0.662792 1.43196,-0.767792 0.008,-0.01986 -0.13476,-0.199713 -0.3167,-0.399666 -0.18195,-0.199955 -0.46612,-0.516033 -0.63149,-0.702394 -0.33525,-0.377808 -0.41774,-0.434129 -0.46857,-0.319918 -0.0659,0.14794 -0.82901,0.747219 -1.32342,1.039226 -0.67862,0.400818 -1.97447,0.893887 -2.65044,1.008488 -0.30798,0.05221 -0.88176,0.102534 -1.27507,0.111833 l -0.7151,0.01689 -0.41991,-0.482764 c -0.23095,-0.26552 -0.73385,-0.851586 -1.11757,-1.302367 -0.38371,-0.45078 -1.76156,-2.059291 -3.06187,-3.5744659 -1.30035,-1.515174 -3.04736,-3.553661 -3.88227,-4.529969 -0.83491,-0.976308 -1.90915,-2.229808 -2.38719,-2.785558 -0.47804,-0.555754 -1.06473,-1.237819 -1.30374,-1.515713 -0.23902,-0.277894 -0.69463,-0.809958 -1.01248,-1.182356 -0.31785,-0.372399 -0.8003,-0.93511 -1.0721,-1.250473 l -0.49417,-0.573398 -0.15948,0.199466 c -0.73345,0.917329 -2.34942,3.429965 -3.24799,5.050236 -0.53521,0.965069 -1.93237,3.748849 -2.0753,4.13494 -0.0384,0.103796 -0.18534,0.467057 -0.32648,0.807237 z m 2.415,-2.405575 c 0.72058,-1.433977 1.42829,-2.702268 2.17413,-3.896244 0.50529,-0.80889 0.70579,-1.013785 1.43639,-1.467885 l 0.18129,-0.112684 0.77534,0.892028 c 0.42643,0.490618 0.78839,0.924549 0.80436,0.964294 0.016,0.03975 -0.0853,0.148836 -0.22494,0.242423 -0.13968,0.09359 -0.58857,0.433387 -0.99754,0.755112 -1.77603,1.397179 -3.73447,3.423469 -5.07887,5.254855 -0.4964,0.67621 -0.51976,0.698726 -0.43852,0.42272 0.14233,-0.483523 0.68397,-1.692649 1.36835,-3.054619 z m -2.09575,6.6876189 c 1.4983,-2.8149789 3.51304,-5.3558609 5.9564,-7.5118819 0.69274,-0.611275 2.10933,-1.730386 2.28964,-1.808829 0.0493,-0.02144 1.55569,1.643155 1.66979,1.845117 0.0103,0.01827 -0.1363,0.152436 -0.32584,0.298133 -0.84854,0.652273 -1.15451,0.901471 -1.64103,1.336521 -2.79427,2.498667 -4.89136,5.2170919 -6.52621,8.4598219 l -0.41029,0.813812 -1.21775,0.0207 c -0.66977,0.01139 -1.2258,-2.55e-4 -1.23564,-0.02587 -0.0625,-0.162821 0.81774,-2.256692 1.44093,-3.427529 z m 2.93735,2.288918 c 1.67279,-3.071346 4.08054,-5.9264459 6.84688,-8.1189909 0.43958,-0.348401 0.83249,-0.647562 0.87312,-0.664802 0.0794,-0.03371 1.69154,1.790996 1.65495,1.873208 -0.012,0.02695 -0.43042,0.387485 -0.92985,0.801211 -2.14758,1.779046 -4.0308,3.8808019 -5.52372,6.1647329 l -0.62899,0.962244 -1.35868,0.0416 c -0.74728,0.02288 -1.38511,0.02984 -1.4174,0.01547 -0.0738,-0.03286 -0.0267,-0.137631 0.4837,-1.074671 z m 4.72063,-0.455758 c 1.35235,-1.840915 3.18973,-3.7536499 4.85661,-5.0557719 0.3122,-0.243891 0.5823,-0.450727 0.6002,-0.459635 0.0342,-0.01704 1.39327,1.526757 1.5571,1.768794 0.0946,0.139691 0.0895,0.145508 -0.76466,0.8715499 -1.36556,1.160801 -2.51344,2.330587 -3.55875,3.626678 -0.26103,0.323664 -0.50484,0.598206 -0.5418,0.610094 -0.0566,0.01825 -2.76074,0.09395 -3.05086,0.08545 -0.12647,-0.0037 0.0515,-0.28913 0.90216,-1.447156 z m 4.61523,0.332294 c 0.98302,-1.077979 3.09204,-2.989192 3.28728,-2.97896 0.0665,0.0035 1.58213,1.710722 1.63046,1.836593 0.007,0.01948 -0.34077,0.348586 -0.77388,0.731345 -0.43311,0.382758 -0.92863,0.837787 -1.10114,1.011176 l -0.31366,0.315253 -0.62788,0.01134 c -0.34533,0.0062 -1.12152,0.02486 -1.72486,0.04137 -0.60335,0.01651 -1.12197,0.01892 -1.15248,0.0053 -0.0573,-0.02549 0.15875,-0.296406 0.77616,-0.973454 z m 5.21297,0.231983 c 0.2538,-0.209437 0.47689,-0.387473 0.49575,-0.395633 0.0469,-0.0203 0.87268,0.902099 0.85106,0.950673 -0.0134,0.03008 -1.62607,0.09481 -1.95924,0.07864 -0.10091,-0.0049 0.0906,-0.203018 0.61243,-0.633679 z"
     id="path872" /><g
     id="g990"
     transform="translate(-240.83286,-32.212833)"><path
       id="path970"
       style="fill:#5c85ff;fill-opacity:1;stroke-width:0.155651;stroke-linecap:square;paint-order:markers fill stroke;stop-color:#000000"
       d="m 189.95139,4.8543071 c -3.73536,-1.48501 -7.96721,0.33922 -9.45222,4.074572 -2.02821,5.1016999 1.11721,14.3684799 1.98322,14.7127699 0.59273,0.23564 9.37966,-3.8918 11.54366,-9.33509 1.48501,-3.73535 -0.33932,-7.9672499 -4.07466,-9.4522519 z m -1.33084,3.347542 a 3.3083368,3.3083368 0 0 1 1.85217,4.2964899 3.3083368,3.3083368 0 0 1 -4.29658,1.85213 3.3083368,3.3083368 0 0 1 -1.85204,-4.29654 3.3083368,3.3083368 0 0 1 4.29645,-1.8520799 z" /><path
       id="path972"
       style="color:#000000;fill:#5c85ff;stroke-linecap:round;stroke-linejoin:round;-inkscape-stroke:none"
       d="m 163.93674,18.229356 a 0.30647013,0.30647013 0 0 0 -0.20258,0.11834 c 0,0 -2.878,3.771854 -4.22248,9.519832 -1.13702,4.861013 1.18846,8.89271 4.26176,11.205001 0.27751,0.208798 0.67114,0.546467 0.89607,1.384928 0.22493,0.838461 0.25974,2.19167 -0.31058,4.369242 l -2.16782,8.277015 -1.99575,0.06666 -4.8674,-0.0801 a 0.30647013,0.30647013 0 0 0 -0.0842,0.601513 l 7.51995,1.970423 7.51737,1.968872 a 0.30647013,0.30647013 0 0 0 0.22634,-0.564307 l -4.10931,-2.271696 -1.70894,-1.037146 2.18385,-8.339542 c 0.57008,-2.176694 1.24106,-3.320314 1.81643,-3.912423 0.57538,-0.59211 1.03791,-0.660004 1.35547,-0.683679 1.90114,-0.141731 3.80783,-0.676441 5.42758,-1.894458 0.28349,-0.213182 0.55711,-0.448279 0.82062,-0.70435 -0.0674,-0.228395 -0.1283,-0.453498 -0.18862,-0.677995 -0.31686,0.333893 -0.65064,0.631723 -0.99942,0.894002 -1.50378,1.130805 -3.28729,1.63595 -5.10512,1.771468 -0.3857,0.02876 -1.0678,0.165312 -1.75028,0.867648 -0.68249,0.702335 -1.38396,1.943989 -1.97042,4.183207 l -2.24224,8.560718 a 0.30647013,0.30647013 0 0 0 0.13849,0.340031 l 1.91048,1.160136 a 0.30647013,0.30647013 0 0 0 0.01,0.0057 l 1.96887,1.087789 -5.14646,-1.347721 -5.05705,-1.323951 2.33009,0.03927 a 0.30647013,0.30647013 0 0 0 0.016,0 l 2.23242,-0.07648 a 0.30647013,0.30647013 0 0 0 0.2868,-0.22841 l 2.22674,-8.498189 c 0.58753,-2.243269 0.57174,-3.70221 0.30851,-4.683435 -0.26323,-0.981225 -0.79683,-1.472511 -1.11931,-1.715141 -2.92012,-2.19704 -5.11076,-5.965622 -4.03283,-10.574031 1.27045,-5.43144 3.83497,-8.887763 4.00957,-9.120891 l 15.37271,4.027145 c 0.0257,0.12795 0.22972,1.198071 0.15038,3.146578 l 0.60616,-0.190686 c 0.0687,-2.117002 -0.16846,-3.262333 -0.16846,-3.262333 A 0.30647013,0.30647013 0 0 0 179.8574,22.375366 L 164.05681,18.2366 a 0.30647013,0.30647013 0 0 0 -0.11988,-0.0072 z" /><path
       id="path974"
       style="fill:#82d1f4;fill-opacity:1;stroke:none;stroke-width:0.612879;stroke-linecap:square;stroke-dasharray:none;stroke-opacity:1;paint-order:markers fill stroke;stop-color:#000000"
       d="m 175.07559,29.510838 c -0.27084,0.145501 -0.53964,0.272698 -0.7984,0.376205 -3.01941,1.207759 -6.68561,0.156498 -9.88674,0.447518 -0.99604,0.0905 -1.90811,0.131111 -2.73781,0.47904 0.1363,2.715408 1.65374,4.865209 3.58324,6.316927 0.44916,0.33794 1.37246,1.268617 1.7601,2.639116 0.99442,-0.991229 2.28931,-1.327866 2.86753,-1.370976 1.57056,-0.11708 2.98886,-0.540158 4.14858,-1.412317 0.5725,-0.430552 1.10574,-0.976515 1.57406,-1.705322 -0.47631,-2.547376 -0.53008,-4.626531 -0.51056,-5.770191 z" /><path
       id="path976"
       style="fill:none;fill-opacity:1;stroke:#5c85ff;stroke-width:0.612879;stroke-linecap:round;stroke-linejoin:round;stroke-dasharray:none;stroke-opacity:1;paint-order:normal;stop-color:#000000"
       d="m 176.76381,28.700729 c 0,0 -0.42371,4.66127 1.4736,10.18033 1.58081,4.59837 5.56809,6.70031 9.305,7.01545 0.7482,0.0631 2.45118,0.41424 3.82238,4.77364 l 2.63589,8.38018 -1.85116,1.25085 -4.17045,2.52502 7.41382,-2.33194 7.41371,-2.3319 -4.69427,0.26328 -2.23388,0.0341 -2.65518,-8.44146 c -1.36967,-4.35454 -0.21552,-5.49847 0.35211,-5.91696 3.00167,-2.21304 5.14681,-5.68933 3.43688,-11.12565 -2.03329,-6.46434 -4.66645,-9.17605 -4.66645,-9.17605 z" /><path
       id="path978"
       style="fill:#82d1f4;fill-opacity:1;stroke:none;stroke-width:0.612879;stroke-linecap:square;stroke-dasharray:none;stroke-opacity:1;paint-order:markers fill stroke;stop-color:#000000"
       d="m 179.21179,34.309199 c 0.20704,1.17659 0.52196,2.49021 1.00378,3.89177 1.293,3.7612 4.41745,5.35124 7.50246,5.6114 0.56393,0.0476 1.85592,0.34233 2.91467,1.319 0.30184,-1.38655 1.23231,-2.36744 1.70152,-2.71337 1.27134,-0.93733 2.25218,-2.05467 2.77309,-3.41735 0.21202,-0.55465 0.35926,-1.16135 0.40944,-1.84482 -4.97799,-1.7976 -10.48508,1.13457 -15.30155,-2.30577 -0.2111,-0.15078 -0.60705,-0.33567 -1.00341,-0.54086 z" /><path
       style="fill:none;fill-opacity:1;stroke:#5c85ff;stroke-width:0.612879;stroke-linecap:round;stroke-linejoin:round;stroke-dasharray:none;stroke-opacity:1;paint-order:normal;stop-color:#000000"
       d="m 178.76442,20.550809 c 0,0 -0.59039,-7.69208 -3.51009,-7.48818"
       id="path980" /><path
       style="fill:none;fill-opacity:1;stroke:#82d1f4;stroke-width:0.612879;stroke-linecap:round;stroke-linejoin:round;stroke-dasharray:none;stroke-opacity:1;paint-order:normal;stop-color:#000000"
       d="m 173.17753,15.665939 c 0,0 2.57406,0 3.42233,4.32911"
       id="path982" /><path
       style="fill:none;fill-opacity:1;stroke:#5c85ff;stroke-width:0.612879;stroke-linecap:round;stroke-linejoin:round;stroke-dasharray:none;stroke-opacity:1;paint-order:normal;stop-color:#000000"
       d="m 189.44093,22.305849 c 0,0 4.94337,-4.3291 6.99092,-2.57406"
       id="path984" /><path
       id="path986"
       style="fill:none;stroke:#5c85ff;stroke-width:0.612879;stroke-linecap:round;stroke-linejoin:round;stroke-opacity:1;stop-color:#000000"
       d="m 175.15436,7.1785491 c 0.90243,0 1.63399,0.73156 1.63399,1.63398 0,0.90243 -0.73156,1.6339899 -1.63399,1.6339899 -0.90242,0 -1.63398,-0.7315599 -1.63398,-1.6339899" /><path
       id="path988"
       style="fill:none;stroke:#82d1f4;stroke-width:0.612879;stroke-linecap:round;stroke-linejoin:round;stroke-opacity:1;stop-color:#000000"
       d="m 197.21238,25.063179 c -0.90242,0 -1.63398,-0.73156 -1.63398,-1.63399 0,-0.90242 0.73156,-1.63398 1.63398,-1.63399 0.90243,10e-6 1.63399,0.73157 1.63399,1.63399" /></g><path
     style="fill:none;stroke:#5c85ff;stroke-width:0.4;stroke-linecap:round;stroke-linejoin:round;stroke-dasharray:none;stop-color:#000000"
     d="m 121.78894,-2.7145911 c -1.41627,0.344151 -6.40187,0.06896 -7.14254,1.550318 -0.0491,0.09827 2.60827,0.22147497 2.93453,0.22147497 1.27263,0 3.98692,-0.70107497 5.03853,0 0.52709,0.351387 -0.81931,0.659714 -0.22147,0.830527 2.98928,0.85408 9.01343,-1.03013697 11.18444,0.05537 1.57472,0.78736 4.8228,1.29972303 7.80696,0.553683 0.41038,-0.102595 2.04872,-0.110913 2.27011,-0.553683 0.19812,-0.396243 -0.13424,-0.508376 0.22147,-0.77516 0.84008,-0.63006097 4.32376,-0.26631897 5.42612,-0.166106 1.51292,0.137539 9.19402,-0.82767697 8.02843,-1.99326697 -0.47055,-0.470549 -3.26127,-0.442947 -3.93116,-0.442947 -2.72565,0 -6.32251,-0.606431 -8.9697,0.05537 -1.5805,0.395124 -3.81978,0.761357 -5.37075,0.664422 -3.719,-0.232439 -7.89775,-1.52944 -11.62739,-0.996633 -1.31547,0.187923 -4.4448,1.683936 -5.64758,0.996633 z"
     id="path1065" /><path
     id="path1071"
     style="color:#000000;fill:#ffff00;stroke-linecap:round;stroke-linejoin:round;-inkscape-stroke:none"
     d="m 77.361328,45.925781 c -0.937306,-0.05896 -1.976178,-0.06185 -3.080078,0.03125 -3.842395,0.324071 -6.280112,3.012071 -7.244141,5.816407 -0.07345,0.21365 -0.131423,0.415635 -0.580078,0.707031 -0.441817,0.286955 -1.299963,0.608736 -2.898437,0.701172 l -5.931641,0.341797 -0.380859,-1.050782 -1.042969,-3.402344 a 0.45364636,0.45364636 0 0 0 0,-0.002 c -0.09655,-0.312769 -0.4453,-0.52409 -0.767578,-0.466797 -0.322278,0.05729 -0.575763,0.376245 -0.558594,0.703126 a 0.45364636,0.45364636 0 0 0 0,0.002 L 55.205078,55 l 0.330078,5.693359 a 0.45364636,0.45364636 0 0 0 0,0.002 c 0.01928,0.326488 0.306462,0.615249 0.632813,0.636719 0.32635,0.02147 0.64905,-0.227681 0.710937,-0.548828 l 0.652344,-3.373047 0.255859,-1.089844 5.978516,-0.345703 c 1.599871,-0.09252 2.473303,0.119125 2.914063,0.335938 0.450361,0.221536 0.490325,0.370667 0.566406,0.556641 0.553084,1.351952 1.405893,2.642357 2.710937,3.558593 1.305727,0.916716 3.043485,1.430555 5.253907,1.302735 5.078243,-0.293664 7.667968,-1.763672 7.667968,-1.763672 a 0.45364636,0.45364636 0 0 0 0.002,0 c 0.216775,-0.126106 0.35222,-0.380602 0.335938,-0.63086 L 82.525391,47.373047 a 0.45364636,0.45364636 0 0 0 0,-0.002 c -0.01551,-0.265667 -0.201873,-0.51191 -0.453125,-0.59961 0,0 -1.899018,-0.668828 -4.710938,-0.845703 z m -0.201172,1.34375 c 2.285046,0.125234 3.666235,0.56087 4.039063,0.681641 l 0.632812,10.982422 c -0.384216,0.204655 -2.339661,1.187463 -6.697265,1.439453 -1.965841,0.113677 -3.357815,-0.324677 -4.400391,-1.056641 -1.041933,-0.731512 -1.749209,-1.781734 -2.232422,-2.96289 C 68.369321,56.029302 68.035409,55.464727 67.28125,55.09375 66.535333,54.726827 65.4304,54.520307 63.6875,54.621094 l -6.482422,0.373047 a 0.45364636,0.45364636 0 0 0 -0.002,0 c -0.282957,0.01769 -0.537208,0.23607 -0.609375,0.509765 l -0.0332,-0.580078 -0.02539,-0.447266 c 0.104781,0.262566 0.381322,0.447991 0.664063,0.431641 l 6.435547,-0.373047 c 1.748506,-0.101116 2.844332,-0.450844 3.560546,-0.916015 0.722099,-0.468994 1.011281,-1.071543 1.125,-1.402344 0.826131,-2.403193 2.806099,-4.632403 6.076172,-4.908203 0.996642,-0.08405 1.926357,-0.08495 2.763672,-0.03906 z"
     transform="translate(55.125245,-62.955535)" /><path
     style="color:#000000;fill:#aa0000;stroke-linecap:round;stroke-linejoin:round;-inkscape-stroke:none"
     d="m 129.44556,-16.547332 c -3.65025,0.307865 -5.93606,2.844808 -6.85352,5.513672 -0.0828,0.240998 -0.22945,0.592485 -0.76367,0.939453 -0.53422,0.3469679 -1.47013,0.6780799 -3.11914,0.7734379 l -6.26953,0.361328 -0.49805,-1.3789069 -1.04687,-3.414062 a 0.22488348,0.22488348 0 0 0 -0.43946,0.07813 l 0.32813,5.6933589 0.33008,5.69336 a 0.22488348,0.22488348 0 0 0 0.44531,0.0293 l 0.6543,-3.382813 0.33593,-1.427734 6.31641,-0.365235 c 1.64835,-0.09532 2.59701,0.115403 3.14062,0.382813 0.54362,0.26741 0.69668,0.57474 0.78516,0.791015 0.52968,1.294745 1.33368,2.504885 2.55078,3.359375 1.2171,0.854491 2.84079,1.343756 4.96875,1.220704 5.00177,-0.289241 7.4668,-1.703125 7.4668,-1.703125 a 0.22488348,0.22488348 0 0 0 0.11133,-0.208985 l -0.69141,-11.9648519 a 0.22488348,0.22488348 0 0 0 -0.15039,-0.199218 c 0,0 -3.28524,-1.155047 -7.60156,-0.791016 z m 0.0371,0.449219 c 4.07899,-0.344015 7.07363,0.663554 7.27539,0.732422 l 0.67187,11.6406249 c -0.1537,0.08643 -2.38497,1.320469 -7.14453,1.595703 -2.04683,0.118361 -3.5556,-0.345365 -4.68555,-1.138672 -1.12995,-0.793307 -1.8861,-1.924103 -2.39257,-3.162109 -0.10746,-0.262678 -0.35714,-0.7082 -1.00196,-1.025391 -0.64482,-0.317191 -1.67149,-0.523838 -3.36718,-0.425781 l -6.48243,0.373047 a 0.22488348,0.22488348 0 0 0 -0.20507,0.173828 l -0.37696,1.595703 a 0.22488348,0.22488348 0 0 0 -0.002,0.0078 l -0.3125,1.621094 -0.22656,-3.896484 -0.2207,-3.8320319 0.50195,1.638672 a 0.22488348,0.22488348 0 0 0 0.002,0.0098 l 0.55859,1.5410159 a 0.22488348,0.22488348 0 0 0 0.22461,0.148437 l 6.43555,-0.373047 c 1.69876,-0.09824 2.71271,-0.437704 3.33789,-0.84375 0.62518,-0.4060459 0.84709,-0.8898809 0.94336,-1.1699219 0.87173,-2.535841 3.00623,-4.919071 6.4668,-5.210937 z"
     id="path9786" /><path
     id="path1084"
     style="fill:#ffffff;stroke-linecap:round;stroke-linejoin:round"
     d="m 77.384766,45.564453 c -0.953259,-0.05996 -2.011331,-0.06154 -3.134766,0.0332 -3.996331,0.337054 -6.552868,3.144325 -7.554688,6.058594 -0.07721,0.224581 -0.03892,0.263879 -0.435546,0.521484 -0.366082,0.237766 -1.164979,0.552502 -2.722657,0.642578 l -5.662109,0.326172 -0.287109,-0.789062 -1.03711,-3.388672 -0.002,-0.0039 a 0.36126194,0.36126194 0 0 0 0,-0.0039 c -0.155336,-0.503205 -0.658583,-0.806788 -1.175781,-0.714844 -0.517608,0.09201 -0.885005,0.552977 -0.857422,1.078125 a 0.36126194,0.36126194 0 0 0 0,0.0039 l 0.328125,5.693359 0.330078,5.69336 a 0.36126194,0.36126194 0 0 0 0,0.002 c 0.03099,0.524698 0.4465,0.942076 0.970703,0.976562 0.524579,0.03451 0.990376,-0.325634 1.089844,-0.841797 l 0.650391,-3.365234 0.191406,-0.820312 5.710937,-0.330078 c 1.560608,-0.09025 2.377718,0.124346 2.732422,0.298828 0.200171,0.09847 0.278723,0.166084 0.310547,0.203125 0.03182,0.03704 0.03957,0.06222 0.08203,0.166015 0.571856,1.397836 1.462877,2.751437 2.837891,3.716797 1.377129,0.966846 3.205406,1.500812 5.482422,1.369141 5.140538,-0.297267 7.824219,-1.810547 7.824219,-1.810547 a 0.36126194,0.36126194 0 0 0 0.0059,-0.002 c 0.342258,-0.199104 0.540572,-0.569986 0.515625,-0.964844 v -0.002 L 82.886719,47.351562 a 0.36126194,0.36126194 0 0 0 0,-0.002 c -0.02457,-0.420773 -0.297902,-0.781205 -0.695313,-0.919921 v 0.002 c 0,0 -1.947949,-0.687371 -4.80664,-0.867188 z m -0.244141,2.066406 c 2.039627,0.111784 3.21857,0.449496 3.712891,0.603516 l 0.601562,10.458984 c -0.506506,0.25886 -2.280876,1.083526 -6.341797,1.31836 -1.902599,0.11002 -3.19754,-0.306181 -4.171875,-0.990235 -0.97178,-0.682259 -1.640615,-1.668409 -2.105468,-2.804687 -0.157435,-0.384844 -0.548017,-1.030858 -1.394532,-1.447266 -0.325393,-0.160064 -0.757867,-0.260296 -1.207031,-0.351562 0.432107,-0.146368 0.852834,-0.297761 1.158203,-0.496094 0.80368,-0.521979 1.138448,-1.206577 1.269531,-1.587891 0.790774,-2.300337 2.645814,-4.402888 5.765625,-4.666015 0.978113,-0.08249 1.890423,-0.08219 2.712891,-0.03711 z"
     transform="translate(15.917354,-72.311281)" /><path
     id="path1087"
     style="color:#000000;fill:#aa0000;stroke-linecap:round;stroke-linejoin:round;-inkscape-stroke:none"
     d="m 77.353516,46.052734 c -0.931057,-0.05844 -1.963593,-0.06322 -3.060547,0.0293 -3.788621,0.319536 -6.183771,2.967953 -7.134766,5.734375 -0.07608,0.221304 -0.160212,0.464536 -0.632812,0.771485 -0.467677,0.30375 -1.348319,0.627449 -2.960938,0.720703 l -6.025391,0.347656 -0.412109,-1.142578 -1.044922,-3.40625 c -0.07848,-0.25425 -0.361068,-0.427434 -0.623047,-0.38086 -0.261979,0.04657 -0.469035,0.306546 -0.455078,0.572266 a 0.32668773,0.32668773 0 0 0 0,0.002 l 0.328125,5.69336 0.330078,5.693359 c 0.01567,0.265401 0.248383,0.500125 0.513672,0.517578 0.26529,0.01745 0.527817,-0.184253 0.578125,-0.445312 l 0.654297,-3.376954 0.277344,-1.183593 6.074219,-0.351563 c 1.613438,-0.0933 2.507016,0.118636 2.976562,0.34961 0.476461,0.234374 0.547403,0.42664 0.626953,0.621093 0.546535,1.335943 1.385585,2.604951 2.666016,3.503907 1.280922,0.899301 2.988437,1.405782 5.175781,1.279296 5.05684,-0.292425 7.609375,-1.746093 7.609375,-1.746093 a 0.32668773,0.32668773 0 0 0 0.002,0 c 0.175694,-0.102208 0.285907,-0.30887 0.273438,-0.511719 v -0.002 L 82.398438,47.378906 c -0.0126,-0.215959 -0.164899,-0.41699 -0.369141,-0.488281 0,0 -1.882612,-0.662581 -4.675781,-0.837891 z m -0.185547,1.089844 c 2.365613,0.129777 3.835867,0.602716 4.152343,0.707031 l 0.644532,11.166016 c -0.322239,0.174774 -2.351767,1.225744 -6.824219,1.484375 -1.988508,0.114988 -3.411487,-0.330946 -4.478516,-1.080078 -1.066565,-0.748807 -1.787622,-1.820512 -2.277343,-3.017578 -0.125588,-0.306992 -0.436598,-0.839389 -1.160157,-1.195313 -0.717623,-0.353004 -1.80156,-0.559007 -3.53125,-0.458984 l -6.482421,0.373047 c -0.235107,0.0147 -0.450885,0.19626 -0.503907,0.425781 l -0.191406,0.806641 -0.08203,-1.423828 -0.07422,-1.292969 0.283203,0.78125 c 0.07982,0.222052 0.315212,0.376903 0.550781,0.363281 l 6.435547,-0.373047 c 1.734586,-0.100311 2.805357,-0.44786 3.496094,-0.896484 0.694974,-0.451377 0.965382,-1.021295 1.074219,-1.337891 0.838892,-2.440316 2.862162,-4.709938 6.185547,-4.990234 1.003108,-0.0846 1.940236,-0.08726 2.783203,-0.04102 z"
     transform="translate(15.917354,-72.311281)" /><path
     style="fill:#aa0000;stroke-width:0.0552628"
     d="m 92.718151,-19.512008 c 1.283658,0.847525 3.084944,1.876437 4.474928,2.556146 0.70496,0.344731 1.870814,0.870724 2.194205,0.989944 l 0.197825,0.0729 0.104687,-0.616067 c 0.0576,-0.338833 0.158442,-0.942416 0.224135,-1.341283 0.06569,-0.398865 0.156369,-0.942018 0.201499,-1.206991 0.0451,-0.264973 0.26366,-1.567899 0.48562,-2.89538 0.22195,-1.327482 0.62846,-3.757547 0.90336,-5.400147 0.2749,-1.642598 0.65298,-3.905066 0.84019,-5.027703 l 0.34039,-2.041163 0.42835,-1.829238 c 0.006,-0.0371 0.055,-0.125434 0.1529,-0.26677 0.31525,-0.455161 1.41733,-2.555968 1.9469,-3.711346 0.30627,-0.668201 0.68861,-1.642087 0.65412,-1.666149 -0.0339,-0.02368 -1.62668,-0.394737 -1.66733,-0.388441 -0.013,0.0017 -0.0511,0.192384 -0.0844,0.423037 -0.0644,0.445252 -0.30741,1.510014 -0.51533,2.258317 -0.25563,0.919994 -0.96809,3.064196 -1.00873,3.03585 -0.009,-0.0064 0.0189,-0.288739 0.0623,-0.627563 0.10374,-0.811232 0.0612,-1.884467 -0.10753,-2.711818 -0.11996,-0.5883 -0.32014,-1.231031 -0.39885,-1.280667 -0.0149,-0.0096 -0.18294,0.07806 -0.37343,0.194335 -0.1905,0.11628 -0.49108,0.297294 -0.66797,0.402256 -0.3586,0.212784 -0.41714,0.270861 -0.33249,0.329896 0.10964,0.07651 0.4763,0.788681 0.63583,1.235057 0.21897,0.612689 0.41637,1.740136 0.40374,2.305993 -0.006,0.257813 -0.0545,0.730799 -0.1084,1.051079 l -0.0979,0.582326 -0.45691,0.265025 c -0.25129,0.145765 -0.80489,0.461946 -1.230215,0.702626 -0.425325,0.24068 -1.944352,1.106501 -3.375611,1.924047 -1.431266,0.81757 -3.356478,1.915521 -4.278254,2.439914 -0.921775,0.524394 -2.105617,1.199522 -2.630761,1.500281 -0.525145,0.300758 -1.169646,0.669868 -1.432231,0.820237 -0.262586,0.150371 -0.765026,0.436646 -1.116528,0.636171 -0.351503,0.199525 -0.882976,0.502764 -1.181053,0.673862 l -0.541968,0.311082 0.136797,0.16042 c 0.629119,0.737774 2.413681,2.440004 3.586856,3.421372 0.698768,0.58452 2.73729,2.151705 3.027956,2.327846 0.07814,0.04734 0.34968,0.223158 0.60341,0.390679 z m -1.573032,-2.333242 c -1.049944,-0.807998 -1.967585,-1.579698 -2.81903,-2.370704 -0.576834,-0.535888 -0.71163,-0.730405 -0.965682,-1.39355 l -0.06304,-0.164557 0.844156,-0.489259 c 0.464287,-0.26909 0.872556,-0.494767 0.907268,-0.501503 0.03471,-0.0067 0.107343,0.09235 0.1614,0.22019 0.05406,0.127845 0.259435,0.544778 0.456392,0.926528 0.85534,1.657847 2.192187,3.561764 3.466896,4.937501 0.470666,0.507968 0.485272,0.53042 0.274214,0.421475 -0.369743,-0.190864 -1.265348,-0.818702 -2.262571,-1.586116 z m 5.094064,2.742941 c -2.048022,-1.654044 -3.793226,-3.683946 -5.159535,-6.001213 -0.387375,-0.656993 -1.073419,-1.980048 -1.108857,-2.138465 -0.0097,-0.04329 1.574874,-1.004577 1.756406,-1.065546 0.01643,-0.0055 0.102296,0.134291 0.190809,0.310683 0.396288,0.789689 0.550529,1.076629 0.827245,1.538937 1.589286,2.655226 3.465558,4.7796 5.839014,6.611117 l 0.595655,0.459646 -0.173329,0.990388 c -0.09533,0.54472 -0.191574,0.993641 -0.213874,0.997619 -0.141747,0.02524 -1.701701,-1.015198 -2.553537,-1.703166 z m 2.314056,-2.023798 c -2.228605,-1.835509 -4.167172,-4.233055 -5.512664,-6.817853 -0.213802,-0.41073 -0.394975,-0.775937 -0.402606,-0.811569 -0.01492,-0.06966 1.715928,-1.091628 1.776859,-1.049132 0.01997,0.01393 0.246914,0.409414 0.504327,0.87886 1.106894,2.01865 2.516658,3.873376 4.135033,5.440157 l 0.681837,0.660103 -0.17839,1.107896 c -0.09811,0.609343 -0.192047,1.127478 -0.208737,1.151412 -0.03815,0.05469 -0.115734,1.41e-4 -0.795659,-0.559874 z m 0.36751,-3.897875 c -1.281195,-1.383663 -2.544886,-3.171728 -3.340213,-4.726241 -0.148966,-0.291164 -0.27447,-0.542402 -0.278896,-0.558306 -0.0084,-0.0304 1.455161,-0.891086 1.676941,-0.986105 0.128001,-0.05484 0.13192,-0.04981 0.587138,0.755922 0.727804,1.288198 1.496876,2.401331 2.384348,3.451042 0.221623,0.262137 0.406113,0.502639 0.409983,0.534453 0.006,0.04875 -0.35484,2.252631 -0.40702,2.486489 -0.02274,0.101937 -0.226345,-0.08686 -1.032279,-0.957254 z m 0.989881,-3.689408 c -0.720386,-0.965164 -1.940439,-2.97319 -1.901665,-3.129859 0.01323,-0.05337 1.633775,-1.015465 1.743356,-1.034994 0.01697,-0.003 0.229379,0.330657 0.472039,0.74151 0.24267,0.410853 0.53417,0.883573 0.6478,1.05049 l 0.20658,0.303483 -0.0888,0.510747 c -0.0489,0.280906 -0.15493,0.91303 -0.23574,1.404704 -0.0808,0.491675 -0.15982,0.912461 -0.17562,0.935073 -0.0296,0.04244 -0.2155,-0.174969 -0.667952,-0.781159 z m 1.00188,-4.189625 c -0.13015,-0.238436 -0.23965,-0.447072 -0.24332,-0.463636 -0.009,-0.04121 0.86752,-0.566593 0.90352,-0.541484 0.0223,0.01556 -0.177,1.332958 -0.24212,1.600508 -0.0197,0.08104 -0.15043,-0.105126 -0.41808,-0.595388 z"
     id="path1074" /><path
     id="path1217"
     style="fill:#aa0000;stroke:none;stroke-width:0.4;stroke-linecap:round;stroke-linejoin:round;stroke-dasharray:none;stop-color:#000000"
     d="m 41.241929,1.1230095 c -0.013,0.0017 -0.05093,0.192578 -0.08423,0.42323 -0.0644,0.445252 -0.307295,1.509958 -0.515214,2.258261 -0.25563,0.919993 -0.968084,3.064336 -1.008724,3.03599 -0.009,-0.0064 0.01861,-0.289045 0.06201,-0.627869 0.10374,-0.811231 0.06124,-1.884112 -0.107487,-2.711462 -0.11996,-0.5883 -0.320232,-1.231423 -0.398942,-1.281059 -0.0149,-0.0096 -0.182614,0.078545 -0.373104,0.19482 -0.190499,0.11628 -0.491286,0.297081 -0.668176,0.402043 -0.3586,0.212784 -0.416929,0.270661 -0.332279,0.329696 0.10964,0.07651 0.47609,0.788691 0.63562,1.235066 0.21897,0.612689 0.416223,1.740463 0.403593,2.306319 -0.006,0.257813 -0.0541,0.730819 -0.108004,1.051099 l -0.09819,0.582394 -0.45682,0.264583 c -0.25129,0.145765 -0.805091,0.46212 -1.230416,0.702799 -0.425324,0.24068 -1.944247,1.1063685 -3.375504,1.9239135 -1.431265,0.817569 -3.356517,1.915769 -4.278292,2.440161 -0.921774,0.524394 -2.105704,1.199408 -2.630847,1.500167 -0.525145,0.300758 -1.16937,0.669736 -1.431954,0.820105 -0.262586,0.150371 -0.765226,0.436612 -1.116728,0.636137 -0.351503,0.199525 -0.88273,0.502763 -1.180806,0.67386 l -0.542086,0.311093 0.136942,0.160713 c 0.629119,0.737773 2.413688,2.44013 3.586862,3.421497 0.698767,0.584519 2.737056,2.151362 3.027722,2.327502 0.07814,0.0473 0.349851,0.22315 0.60358,0.39068 1.283657,0.84753 3.08468,1.87672 4.474663,2.55643 0.704959,0.34473 1.87079,0.87039 2.194181,0.9896 l 0.197921,0.07287 0.104386,-0.61598 c 0.0576,-0.33884 0.158583,-0.94214 0.224276,-1.34101 0.06569,-0.39886 0.156408,-0.94218 0.201538,-1.20716 0.0451,-0.26497 0.263799,-1.56795 0.485758,-2.89543 0.22195,-1.32748 0.628405,-3.757589 0.903304,-5.400187 0.2749,-1.642596 0.653049,-3.904964 0.840259,-5.0276 l 0.340548,-2.0412185 0.427881,-1.829346 c 0.006,-0.0371 0.05506,-0.125314 0.152962,-0.26665 0.31525,-0.455161 1.417598,-2.556025 1.947168,-3.711402 0.30627,-0.6682 0.688714,-1.641986 0.654224,-1.666048 -0.0339,-0.02368 -1.626949,-0.394903 -1.667599,-0.388607 z m -2.62723,8.375717 c 0.0223,0.01556 -0.176725,1.3328685 -0.241845,1.6004185 -0.0197,0.08104 -0.150413,-0.105051 -0.418063,-0.595313 -0.13015,-0.238436 -0.239726,-0.446973 -0.243396,-0.463537 -0.009,-0.04121 0.867304,-0.5666775 0.903304,-0.5415685 z m -1.82056,1.0299105 c 0.01697,-0.003 0.229662,0.330704 0.472322,0.741557 0.24267,0.410852 0.533876,0.883665 0.647506,1.050582 l 0.206706,0.30334 -0.08888,0.510563 c -0.0489,0.280906 -0.154834,0.913409 -0.235644,1.405083 -0.0808,0.491674 -0.1599,0.912214 -0.1757,0.934826 -0.02959,0.04243 -0.215419,-0.174937 -0.66766,-0.780831 v -5.16e-4 c -0.720416,-0.965286 -1.940462,-2.972873 -1.901692,-3.129525 0.01323,-0.05337 1.633465,-1.01555 1.743046,-1.035079 z m -2.710946,1.563729 c 0.08263,-0.0052 0.154651,0.121006 0.524516,0.775663 0.727803,1.288197 1.496879,2.401242 2.38435,3.450952 0.221623,0.262137 0.406441,0.503037 0.410311,0.534851 0.006,0.04875 -0.35503,2.252296 -0.40721,2.486153 -0.02274,0.101937 -0.226562,-0.08665 -1.032495,-0.957047 -1.281194,-1.383662 -2.544522,-3.171815 -3.339848,-4.726327 -0.148966,-0.291163 -0.274627,-0.542201 -0.279053,-0.558105 -0.0084,-0.0304 1.455121,-0.891484 1.6769,-0.986503 0.024,-0.01028 0.04346,-0.01845 0.06253,-0.01964 z m -2.637048,1.508952 c 0.0051,-6.9e-4 0.0089,-2.95e-4 0.01085,0.001 0.01997,0.01393 0.246949,0.409054 0.504362,0.878499 1.106893,2.018648 2.516774,3.873716 4.135148,5.440495 l 0.681612,0.659908 -0.178284,1.107943 c -0.09811,0.609342 -0.192083,1.127412 -0.208773,1.151352 -0.03815,0.0547 -0.115892,3.6e-4 -0.795817,-0.55966 -2.228602,-1.835499 -4.167351,-4.23339 -5.512841,-6.818185 -0.213802,-0.41073 -0.394929,-0.775688 -0.40256,-0.81132 -0.01445,-0.06748 1.609397,-1.028691 1.766301,-1.050065 z m -2.67684,1.498099 c 0.01643,-0.0055 0.102174,0.134184 0.190686,0.310576 0.396288,0.789688 0.550624,1.076616 0.82734,1.538924 1.589285,2.655223 3.465467,4.779447 5.83892,6.610961 l 0.595829,0.45993 -0.173632,0.99012 c -0.09533,0.54472 -0.191124,0.99389 -0.213424,0.99787 -0.141747,0.0252 -1.702014,-1.01529 -2.553849,-1.70326 -2.04802,-1.65404 -3.793068,-3.683917 -5.159375,-6.001182 -0.387375,-0.656992 -1.073539,-1.979954 -1.108977,-2.138371 -0.0097,-0.04329 1.574951,-1.004599 1.756482,-1.065568 z m -2.678389,1.542542 c 0.03471,-0.0067 0.107173,0.0923 0.16123,0.220141 0.05406,0.127845 0.259347,0.544809 0.456303,0.926559 0.855339,1.657845 2.192264,3.561945 3.466972,4.937679 0.470666,0.50797 0.48546,0.53012 0.274402,0.42117 -0.369743,-0.19086 -1.265172,-0.81854 -2.262394,-1.585953 -1.049943,-0.807997 -1.968022,-1.579393 -2.819466,-2.370398 -0.576834,-0.535887 -0.711264,-0.730569 -0.965316,-1.393713 l -0.06304,-0.164848 0.843876,-0.488859 c 0.464286,-0.26909 0.872726,-0.495042 0.907438,-0.501778 z m -3.086117,2.112532 c -2.064469,1.062371 -3.439309,2.940231 -4.105175,4.877227 -0.07608,0.2213 -0.160437,0.46458 -0.633037,0.77152 -0.467675,0.30375 -1.348444,0.62764 -2.961059,0.72089 l -6.0249554,0.34727 -0.412378,-1.14257 -1.044898,-3.405993 c -0.078482,-0.25425 -0.361239,-0.42743 -0.623218,-0.380856 -0.261977,0.04658 -0.468709,0.30634 -0.454752,0.572058 a 0.32668773,0.32668773 0 0 0 0,0.0021 l 0.328145,5.693194 0.329696,5.69371 c 0.015673,0.2654 0.248893,0.49983 0.51418,0.51728 0.26529,0.01745 0.527435,-0.18388 0.577743,-0.44493 l 0.654223,-3.37706 0.277503,-1.18391 6.0740484,-0.3514 c 1.613434,-0.0933 2.507018,0.11888 2.976562,0.34985 0.476461,0.23438 0.547802,0.4267 0.627352,0.62115 0.546535,1.33594 1.385558,2.60471 2.665987,3.50367 1.28092,0.89929 2.988055,1.40599 5.175395,1.2795 5.05683,-0.29242 7.609355,-1.74614 7.609355,-1.74614 a 0.32668773,0.32668773 0 0 0 0.0021,0 c 0.175692,-0.10221 0.285837,-0.30927 0.273368,-0.51212 v -0.0015 l -0.240295,-4.15375 c -0.178976,-0.08423 -0.355583,-0.16835 -0.50798,-0.24288 -0.202255,-0.0989 -0.413987,-0.20679 -0.629936,-0.31832 l 0.253215,4.38888 c -0.322239,0.17477 -2.351429,1.22551 -6.823873,1.48414 -1.988504,0.11499 -3.411769,-0.3309 -4.478796,-1.08003 -1.066563,-0.74881 -1.78766,-1.82033 -2.277381,-3.01739 -0.125588,-0.30699 -0.436577,-0.83987 -1.160136,-1.19579 -0.717621,-0.35301 -1.801364,-0.55891 -3.53105,-0.45889 l -6.4822924,0.3731 c -0.235107,0.0147 -0.450823,0.1963 -0.503845,0.42582 l -0.19172,0.80667 -0.082165,-1.42369 -0.073897,-1.29294 0.283186,0.78134 c 0.079819,0.22206 0.315302,0.37691 0.550871,0.36329 l 6.4352664,-0.37311 c 1.734584,-0.10031 2.805691,-0.44796 3.496428,-0.89658 0.694972,-0.45138 0.964999,-1.02131 1.073836,-1.3379 0.625114,-1.81845 1.908607,-3.541445 3.89692,-4.417822 -0.298065,-0.284938 -0.581291,-0.562379 -0.832508,-0.817005 z m -7.354073,12.732037 c -0.601216,0.0049 -1.194915,0.04388 -1.777669,0.12713 -1.102817,0.15754 -3.4798,1.23345 -4.9283814,1.17254 -0.143239,0.45114 -0.575813,0.75421 -1.05885,0.72243 -0.443689,-0.02919 -0.808443,-0.33292 -0.929143,-0.74362 -2.029048,0.15057 -5.2857217,0.21964 -5.8735429,1.39526 -0.04914,0.0983 2.6084422,0.22169 2.9347046,0.22169 1.2726264,0 3.9868443,-0.70107 5.0384523,0 0.527082,0.35139 -0.819535,0.65963 -0.221692,0.83044 2.9892774,0.85408 9.0133254,-1.03024 11.1843304,0.0553 1.574721,0.78736 4.823126,1.30001 7.807276,0.55397 0.410377,-0.10259 2.048757,-0.1112 2.270145,-0.55397 0.19812,-0.39624 -0.134534,-0.50837 0.221175,-0.77515 0.840081,-0.63006 4.323678,-0.26609 5.426026,-0.16588 1.512926,0.13754 9.194038,-0.82809 8.02845,-1.99368 -0.470548,-0.47055 -3.261138,-0.44286 -3.931026,-0.44286 -1.3971,0 -3.023119,-0.15809 -4.632792,-0.22428 -0.08902,0.17463 -0.227456,0.32378 -0.404627,0.42685 a 0.36126194,0.36126194 0 0 1 -0.0057,0.0021 c 0,0 -2.683801,1.51348 -7.824329,1.81075 -2.27701,0.13167 -4.105227,-0.40258 -5.482352,-1.36943 -0.239966,-0.16847 -0.464051,-0.34972 -0.675411,-0.54002 -1.729659,-0.27201 -3.476874,-0.52342 -5.16506,-0.50953 z" /></svg>
