<svg version="1.1" xmlns="http://www.w3.org/2000/svg" xmlns:xlink="http://www.w3.org/1999/xlink" width="53.24248" height="62.48572" viewBox="869.02994,429.44319,53.24248,62.48572"><defs><clipPath id="clip-1"><rect x="869.02994" y="429.44319" width="53.24248" height="62.48572" id="clip-1" fill="none" stroke="none" stroke-width="1" stroke-linecap="butt" stroke-linejoin="miter"/></clipPath></defs><g id="document" fill-opacity="0" fill="#ffffff" fill-rule="nonzero" stroke="#000000" stroke-width="0" stroke-linecap="butt" stroke-linejoin="miter" stroke-miterlimit="10" stroke-dasharray="" stroke-dashoffset="0" font-family="none" font-weight="none" font-size="none" text-anchor="none" style="mix-blend-mode: normal"><rect x="12194" y="3595.83333" transform="scale(0.07143,0.12)" width="700" height="500" id="Shape 1 1" vector-effect="non-scaling-stroke"/></g><g fill="none" fill-rule="nonzero" stroke="none" stroke-width="none" stroke-linecap="none" stroke-linejoin="none" stroke-miterlimit="10" stroke-dasharray="" stroke-dashoffset="0" font-family="none" font-weight="none" font-size="none" text-anchor="none" style="mix-blend-mode: normal"><g><g id="stage"><g id="layer1 1"><g clip-path="url(#clip-1)" id="Group 1"><g id="Group 1"><path d="M906.73807,432.42661c-3.73536,-1.48501 -7.96721,0.33922 -9.45222,4.07457c-2.02821,5.1017 1.11721,14.36848 1.98322,14.71277c0.59273,0.23564 9.37966,-3.8918 11.54366,-9.33509c1.48501,-3.73535 -0.33932,-7.96725 -4.07466,-9.45225zM905.40723,435.77415c0.81537,0.32413 1.46857,0.9589 1.81592,1.76465c0.34735,0.80575 0.36039,1.71648 0.03625,2.53184c-0.32414,0.81538 -0.95892,1.4686 -1.76469,1.81594c-0.80577,0.34734 -1.71652,0.36036 -2.53189,0.03619c-0.81535,-0.32416 -1.46854,-0.95894 -1.81587,-1.7647c-0.34733,-0.80576 -0.36034,-1.71649 -0.03617,-2.53184c0.67501,-1.69785 2.59858,-2.52705 4.29645,-1.85208z" id="CompoundPath 1" fill="#c12755" stroke="none" stroke-width="0.15565" stroke-linecap="square" stroke-linejoin="miter"/><path d="M880.72342,445.80166c-0.08055,0.01102 -0.15342,0.05358 -0.20258,0.11834c0,0 -2.878,3.77185 -4.22248,9.51983c-1.13702,4.86101 1.18846,8.89271 4.26176,11.205c0.27751,0.2088 0.67114,0.54647 0.89607,1.38493c0.22493,0.83846 0.25974,2.19167 -0.31058,4.36924l-2.16782,8.27702l-1.99575,0.06666l-4.8674,-0.0801c-0.15334,-0.00065 -0.28356,0.11212 -0.30481,0.26398c-0.02126,0.15186 0.07299,0.29605 0.22061,0.33753l7.51995,1.97042l7.51737,1.96887c0.14929,0.03883 0.30417,-0.03934 0.3616,-0.18251c0.05742,-0.14317 -0.00051,-0.30671 -0.13526,-0.3818l-4.10931,-2.2717l-1.70894,-1.03715l2.18385,-8.33954c0.57008,-2.17669 1.24106,-3.32031 1.81643,-3.91242c0.57538,-0.59211 1.03791,-0.66 1.35547,-0.68368c1.90114,-0.14173 3.80783,-0.67644 5.42758,-1.89446c0.28349,-0.21318 0.55711,-0.44828 0.82062,-0.70435c-0.0674,-0.2284 -0.1283,-0.4535 -0.18862,-0.678c-0.31686,0.33389 -0.65064,0.63172 -0.99942,0.894c-1.50378,1.13081 -3.28729,1.63595 -5.10512,1.77147c-0.3857,0.02876 -1.0678,0.16531 -1.75028,0.86765c-0.68249,0.70234 -1.38396,1.94399 -1.97042,4.18321l-2.24224,8.56072c-0.03435,0.13151 0.02203,0.26994 0.13849,0.34003l1.91048,1.16014c0.0033,0.00196 0.00663,0.00386 0.01,0.0057l1.96887,1.08779l-5.14646,-1.34772l-5.05705,-1.32395l2.33009,0.03927c0.00533,0.00014 0.01067,0.00014 0.016,0l2.23242,-0.07648c0.13562,-0.00425 0.25231,-0.09718 0.2868,-0.22841l2.22674,-8.49819c0.58753,-2.24327 0.57174,-3.70221 0.30851,-4.68344c-0.26323,-0.98122 -0.79683,-1.47251 -1.11931,-1.71514c-2.92012,-2.19704 -5.11076,-5.96562 -4.03283,-10.57403c1.27045,-5.43144 3.83497,-8.88776 4.00957,-9.12089l15.37271,4.02715c0.0257,0.12795 0.22972,1.19807 0.15038,3.14658l0.60616,-0.19069c0.0687,-2.117 -0.16846,-3.26233 -0.16846,-3.26233c-0.02426,-0.11342 -0.11047,-0.20342 -0.22273,-0.23254l-15.80059,-4.13877c-0.03909,-0.01028 -0.07984,-0.01273 -0.11988,-0.0072z" id="Path 1" fill="#c12755" stroke="#c12755" stroke-width="0" stroke-linecap="round" stroke-linejoin="round"/><path d="M891.86227,457.08314c-0.27084,0.1455 -0.53964,0.2727 -0.7984,0.3762c-3.01941,1.20776 -6.68561,0.1565 -9.88674,0.44752c-0.99604,0.0905 -1.90811,0.13111 -2.73781,0.47904c0.1363,2.71541 1.65374,4.86521 3.58324,6.31693c0.44916,0.33794 1.37246,1.26862 1.7601,2.63912c0.99442,-0.99123 2.28931,-1.32787 2.86753,-1.37098c1.57056,-0.11708 2.98886,-0.54016 4.14858,-1.41232c0.5725,-0.43055 1.10574,-0.97652 1.57406,-1.70532c-0.47631,-2.54738 -0.53008,-4.62653 -0.51056,-5.77019z" id="Path 1" fill="#cb4a70" stroke="none" stroke-width="0.61288" stroke-linecap="square" stroke-linejoin="miter"/><path d="M893.55049,456.27303c0,0 -0.42371,4.66127 1.4736,10.18033c1.58081,4.59837 5.56809,6.70031 9.305,7.01545c0.7482,0.0631 2.45118,0.41424 3.82238,4.77364l2.63589,8.38018l-1.85116,1.25085l-4.17045,2.52502l7.41382,-2.33194l7.41371,-2.3319l-4.69427,0.26328l-2.23388,0.0341l-2.65518,-8.44146c-1.36967,-4.35454 -0.21552,-5.49847 0.35211,-5.91696c3.00167,-2.21304 5.14681,-5.68933 3.43688,-11.12565c-2.03329,-6.46434 -4.66645,-9.17605 -4.66645,-9.17605z" id="Path 1" fill="none" stroke="#c12755" stroke-width="0.61288" stroke-linecap="round" stroke-linejoin="round"/><path d="M895.99847,461.8815c0.20704,1.17659 0.52196,2.49021 1.00378,3.89177c1.293,3.7612 4.41745,5.35124 7.50246,5.6114c0.56393,0.0476 1.85592,0.34233 2.91467,1.319c0.30184,-1.38655 1.23231,-2.36744 1.70152,-2.71337c1.27134,-0.93733 2.25218,-2.05467 2.77309,-3.41735c0.21202,-0.55465 0.35926,-1.16135 0.40944,-1.84482c-4.97799,-1.7976 -10.48508,1.13457 -15.30155,-2.30577c-0.2111,-0.15078 -0.60705,-0.33567 -1.00341,-0.54086z" id="Path 1" fill="#cb4a70" stroke="none" stroke-width="0.61288" stroke-linecap="square" stroke-linejoin="miter"/><path d="M895.5511,448.12311c0,0 -0.59039,-7.69208 -3.51009,-7.48818" id="Path 1" fill="none" stroke="#c12755" stroke-width="0.61288" stroke-linecap="round" stroke-linejoin="round"/><path d="M889.96421,443.23824c0,0 2.57406,0 3.42233,4.32911" id="Path 1" fill="none" stroke="#cb4a70" stroke-width="0.61288" stroke-linecap="round" stroke-linejoin="round"/><path d="M906.22761,449.87815c0,0 4.94337,-4.3291 6.99092,-2.57406" id="Path 1" fill="none" stroke="#c12755" stroke-width="0.61288" stroke-linecap="round" stroke-linejoin="round"/><path d="M891.94104,434.75085c0.90243,0 1.63399,0.73156 1.63399,1.63398c0,0.90243 -0.73156,1.63399 -1.63399,1.63399c-0.90242,0 -1.63398,-0.73156 -1.63398,-1.63399" id="Path 1" fill="none" stroke="#c12755" stroke-width="0.61288" stroke-linecap="round" stroke-linejoin="round"/><path d="M913.99906,452.63548c-0.90242,0 -1.63398,-0.73156 -1.63398,-1.63399c0,-0.90242 0.73156,-1.63398 1.63398,-1.63399c0.90243,0.00001 1.63399,0.73157 1.63399,1.63399" id="Path 1" fill="none" stroke="#cb4a70" stroke-width="0.61288" stroke-linecap="round" stroke-linejoin="round"/></g></g></g></g></g></g></svg>