<?xml version="1.0" encoding="UTF-8" standalone="no"?>
<!-- Created with Inkscape (http://www.inkscape.org/) -->

<svg
   width="53.242481mm"
   height="62.485718mm"
   viewBox="0 0 53.242482 62.485718"
   version="1.1"
   id="svg5"
   xml:space="preserve"
   xmlns="http://www.w3.org/2000/svg"
   xmlns:svg="http://www.w3.org/2000/svg"><defs
     id="defs2" /><g
     id="layer1"
     transform="translate(-152.24324,-1.8708867)"><path
       id="path9778"
       style="fill:#5c85ff;fill-opacity:1;stroke-width:0.155651;stroke-linecap:square;paint-order:markers fill stroke;stop-color:#000000"
       d="m 189.95139,4.8543071 c -3.73536,-1.48501 -7.96721,0.33922 -9.45222,4.074572 -2.02821,5.1016999 1.11721,14.3684799 1.98322,14.7127699 0.59273,0.23564 9.37966,-3.8918 11.54366,-9.33509 1.48501,-3.73535 -0.33932,-7.9672499 -4.07466,-9.4522519 z m -1.33084,3.347542 a 3.3083368,3.3083368 0 0 1 1.85217,4.2964899 3.3083368,3.3083368 0 0 1 -4.29658,1.85213 3.3083368,3.3083368 0 0 1 -1.85204,-4.29654 3.3083368,3.3083368 0 0 1 4.29645,-1.8520799 z" /><path
       id="path9780"
       style="color:#000000;fill:#5c85ff;stroke-linecap:round;stroke-linejoin:round;-inkscape-stroke:none"
       d="m 163.93674,18.229356 a 0.30647013,0.30647013 0 0 0 -0.20258,0.11834 c 0,0 -2.878,3.771854 -4.22248,9.519832 -1.13702,4.861013 1.18846,8.89271 4.26176,11.205001 0.27751,0.208798 0.67114,0.546467 0.89607,1.384928 0.22493,0.838461 0.25974,2.19167 -0.31058,4.369242 l -2.16782,8.277015 -1.99575,0.06666 -4.8674,-0.0801 a 0.30647013,0.30647013 0 0 0 -0.0842,0.601513 l 7.51995,1.970423 7.51737,1.968872 a 0.30647013,0.30647013 0 0 0 0.22634,-0.564307 l -4.10931,-2.271696 -1.70894,-1.037146 2.18385,-8.339542 c 0.57008,-2.176694 1.24106,-3.320314 1.81643,-3.912423 0.57538,-0.59211 1.03791,-0.660004 1.35547,-0.683679 1.90114,-0.141731 3.80783,-0.676441 5.42758,-1.894458 0.28349,-0.213182 0.55711,-0.448279 0.82062,-0.70435 -0.0674,-0.228395 -0.1283,-0.453498 -0.18862,-0.677995 -0.31686,0.333893 -0.65064,0.631723 -0.99942,0.894002 -1.50378,1.130805 -3.28729,1.63595 -5.10512,1.771468 -0.3857,0.02876 -1.0678,0.165312 -1.75028,0.867648 -0.68249,0.702335 -1.38396,1.943989 -1.97042,4.183207 l -2.24224,8.560718 a 0.30647013,0.30647013 0 0 0 0.13849,0.340031 l 1.91048,1.160136 a 0.30647013,0.30647013 0 0 0 0.01,0.0057 l 1.96887,1.087789 -5.14646,-1.347721 -5.05705,-1.323951 2.33009,0.03927 a 0.30647013,0.30647013 0 0 0 0.016,0 l 2.23242,-0.07648 a 0.30647013,0.30647013 0 0 0 0.2868,-0.22841 l 2.22674,-8.498189 c 0.58753,-2.243269 0.57174,-3.70221 0.30851,-4.683435 -0.26323,-0.981225 -0.79683,-1.472511 -1.11931,-1.715141 -2.92012,-2.19704 -5.11076,-5.965622 -4.03283,-10.574031 1.27045,-5.43144 3.83497,-8.887763 4.00957,-9.120891 l 15.37271,4.027145 c 0.0257,0.12795 0.22972,1.198071 0.15038,3.146578 l 0.60616,-0.190686 c 0.0687,-2.117002 -0.16846,-3.262333 -0.16846,-3.262333 A 0.30647013,0.30647013 0 0 0 179.8574,22.375366 L 164.05681,18.2366 a 0.30647013,0.30647013 0 0 0 -0.11988,-0.0072 z" /><path
       id="path9782"
       style="fill:#82d1f4;fill-opacity:1;stroke:none;stroke-width:0.612879;stroke-linecap:square;stroke-dasharray:none;stroke-opacity:1;paint-order:markers fill stroke;stop-color:#000000"
       d="m 175.07559,29.510838 c -0.27084,0.145501 -0.53964,0.272698 -0.7984,0.376205 -3.01941,1.207759 -6.68561,0.156498 -9.88674,0.447518 -0.99604,0.0905 -1.90811,0.131111 -2.73781,0.47904 0.1363,2.715408 1.65374,4.865209 3.58324,6.316927 0.44916,0.33794 1.37246,1.268617 1.7601,2.639116 0.99442,-0.991229 2.28931,-1.327866 2.86753,-1.370976 1.57056,-0.11708 2.98886,-0.540158 4.14858,-1.412317 0.5725,-0.430552 1.10574,-0.976515 1.57406,-1.705322 -0.47631,-2.547376 -0.53008,-4.626531 -0.51056,-5.770191 z" /><path
       id="path9786"
       style="fill:none;fill-opacity:1;stroke:#5c85ff;stroke-width:0.612879;stroke-linecap:round;stroke-linejoin:round;stroke-dasharray:none;stroke-opacity:1;paint-order:normal;stop-color:#000000"
       d="m 176.76381,28.700729 c 0,0 -0.42371,4.66127 1.4736,10.18033 1.58081,4.59837 5.56809,6.70031 9.305,7.01545 0.7482,0.0631 2.45118,0.41424 3.82238,4.77364 l 2.63589,8.38018 -1.85116,1.25085 -4.17045,2.52502 7.41382,-2.33194 7.41371,-2.3319 -4.69427,0.26328 -2.23388,0.0341 -2.65518,-8.44146 c -1.36967,-4.35454 -0.21552,-5.49847 0.35211,-5.91696 3.00167,-2.21304 5.14681,-5.68933 3.43688,-11.12565 -2.03329,-6.46434 -4.66645,-9.17605 -4.66645,-9.17605 z" /><path
       id="path9788"
       style="fill:#82d1f4;fill-opacity:1;stroke:none;stroke-width:0.612879;stroke-linecap:square;stroke-dasharray:none;stroke-opacity:1;paint-order:markers fill stroke;stop-color:#000000"
       d="m 179.21179,34.309199 c 0.20704,1.17659 0.52196,2.49021 1.00378,3.89177 1.293,3.7612 4.41745,5.35124 7.50246,5.6114 0.56393,0.0476 1.85592,0.34233 2.91467,1.319 0.30184,-1.38655 1.23231,-2.36744 1.70152,-2.71337 1.27134,-0.93733 2.25218,-2.05467 2.77309,-3.41735 0.21202,-0.55465 0.35926,-1.16135 0.40944,-1.84482 -4.97799,-1.7976 -10.48508,1.13457 -15.30155,-2.30577 -0.2111,-0.15078 -0.60705,-0.33567 -1.00341,-0.54086 z" /><path
       style="fill:none;fill-opacity:1;stroke:#5c85ff;stroke-width:0.612879;stroke-linecap:round;stroke-linejoin:round;stroke-dasharray:none;stroke-opacity:1;paint-order:normal;stop-color:#000000"
       d="m 178.76442,20.550809 c 0,0 -0.59039,-7.69208 -3.51009,-7.48818"
       id="path9790" /><path
       style="fill:none;fill-opacity:1;stroke:#82d1f4;stroke-width:0.612879;stroke-linecap:round;stroke-linejoin:round;stroke-dasharray:none;stroke-opacity:1;paint-order:normal;stop-color:#000000"
       d="m 173.17753,15.665939 c 0,0 2.57406,0 3.42233,4.32911"
       id="path9792" /><path
       style="fill:none;fill-opacity:1;stroke:#5c85ff;stroke-width:0.612879;stroke-linecap:round;stroke-linejoin:round;stroke-dasharray:none;stroke-opacity:1;paint-order:normal;stop-color:#000000"
       d="m 189.44093,22.305849 c 0,0 4.94337,-4.3291 6.99092,-2.57406"
       id="path9794" /><path
       id="path9796"
       style="fill:none;stroke:#5c85ff;stroke-width:0.612879;stroke-linecap:round;stroke-linejoin:round;stroke-opacity:1;stop-color:#000000"
       d="m 175.15436,7.1785491 c 0.90243,0 1.63399,0.73156 1.63399,1.63398 0,0.90243 -0.73156,1.6339899 -1.63399,1.6339899 -0.90242,0 -1.63398,-0.7315599 -1.63398,-1.6339899" /><path
       id="path9798"
       style="fill:none;stroke:#82d1f4;stroke-width:0.612879;stroke-linecap:round;stroke-linejoin:round;stroke-opacity:1;stop-color:#000000"
       d="m 197.21238,25.063179 c -0.90242,0 -1.63398,-0.73156 -1.63398,-1.63399 0,-0.90242 0.73156,-1.63398 1.63398,-1.63399 0.90243,10e-6 1.63399,0.73157 1.63399,1.63399" /></g></svg>
